<svg width="115" height="65" viewBox="0 0 115 65" fill="none" xmlns="http://www.w3.org/2000/svg">
<path d="M66.0359 34.8333H47.6576C46.4391 34.8333 45.2704 34.3329 44.4088 33.4421C43.5471 32.5513 43.063 31.3431 43.063 30.0833V14.25C43.063 12.9902 43.5471 11.782 44.4088 10.8912C45.2704 10.0005 46.4391 9.50001 47.6576 9.50001H49.1891C49.2149 8.15835 49.6522 6.85983 50.438 5.79173C51.2237 4.72363 52.3174 3.94116 53.5611 3.55718C54.8048 3.17319 56.1344 3.20755 57.358 3.65528C58.5817 4.10302 59.6361 4.94099 60.3693 6.04834C61.0561 7.06032 61.4299 8.26384 61.4413 9.50001H66.0359C66.4421 9.50001 66.8316 9.66682 67.1189 9.96375C67.4061 10.2607 67.5674 10.6634 67.5674 11.0833V15.8333C68.8652 15.86 70.1212 16.3121 71.1544 17.1244C72.1875 17.9368 72.9444 19.0674 73.3158 20.3532C73.6872 21.639 73.654 23.0135 73.2209 24.2786C72.7878 25.5436 71.9773 26.6337 70.9062 27.3917C69.9273 28.1017 68.7632 28.4882 67.5674 28.5V33.25C67.5674 33.6699 67.4061 34.0727 67.1189 34.3696C66.8316 34.6665 66.4421 34.8333 66.0359 34.8333ZM47.6576 12.6667C47.2514 12.6667 46.8619 12.8335 46.5747 13.1304C46.2875 13.4274 46.1261 13.8301 46.1261 14.25V30.0833C46.1261 30.5033 46.2875 30.906 46.5747 31.2029C46.8619 31.4999 47.2514 31.6667 47.6576 31.6667H64.5044V26.6317C64.5031 26.3778 64.5608 26.1273 64.6728 25.9014C64.7847 25.6754 64.9476 25.4806 65.1476 25.3333C65.3471 25.1863 65.5777 25.0909 65.8202 25.0551C66.0627 25.0192 66.31 25.0441 66.5413 25.1275C66.9778 25.3116 67.4531 25.3748 67.9205 25.311C68.3878 25.2471 68.8309 25.0583 69.2062 24.7633C69.5796 24.5279 69.9 24.2125 70.1457 23.8383C70.3913 23.4641 70.5567 23.0399 70.6305 22.5942C70.6895 22.1446 70.6545 21.6871 70.5276 21.2528C70.4008 20.8185 70.1852 20.4174 69.8954 20.0767C69.5034 19.5844 68.9696 19.2345 68.3718 19.0778C67.774 18.9212 67.1434 18.966 66.5719 19.2058C66.3407 19.2893 66.0934 19.3141 65.8509 19.2783C65.6084 19.2425 65.3777 19.147 65.1783 19C64.9782 18.8528 64.8153 18.6579 64.7034 18.432C64.5914 18.206 64.5337 17.9555 64.535 17.7017V12.6667H59.6341C59.3824 12.6814 59.1311 12.6317 58.9024 12.5219C58.6738 12.4122 58.4749 12.2457 58.3234 12.0374C58.1719 11.8291 58.0724 11.5853 58.0339 11.3277C57.9954 11.0702 58.019 10.8067 58.1026 10.5608C58.2807 10.1096 58.3418 9.61816 58.2801 9.13502C58.2183 8.65188 58.0357 8.19375 57.7504 7.80584C57.5242 7.40868 57.2146 7.06922 56.8443 6.8126C56.474 6.55599 56.0527 6.38879 55.6114 6.3234C55.1702 6.25802 54.7203 6.29611 54.2952 6.43488C53.8702 6.57364 53.4807 6.80951 53.1558 7.12501C52.854 7.43441 52.6179 7.80535 52.4623 8.21423C52.3068 8.62311 52.2352 9.06099 52.2522 9.50001C52.2557 9.86318 52.3232 10.2226 52.4513 10.5608C52.5323 10.8003 52.5564 11.0563 52.5217 11.3074C52.487 11.5585 52.3944 11.7973 52.2518 12.0037C52.1092 12.2101 51.9207 12.378 51.7023 12.4934C51.4838 12.6088 51.2417 12.6682 50.9963 12.6667H47.6576Z" fill="white"/>
<path d="M7.60938 57.2266H9.94531C9.89844 57.9922 9.6875 58.6719 9.3125 59.2656C8.94271 59.8594 8.42448 60.3229 7.75781 60.6562C7.09635 60.9896 6.29948 61.1562 5.36719 61.1562C4.63802 61.1562 3.98438 61.0312 3.40625 60.7812C2.82812 60.526 2.33333 60.1615 1.92188 59.6875C1.51562 59.2135 1.20573 58.6406 0.992188 57.9688C0.778646 57.2969 0.671875 56.5443 0.671875 55.7109V54.9219C0.671875 54.0885 0.78125 53.3359 1 52.6641C1.22396 51.987 1.54167 51.4115 1.95312 50.9375C2.36979 50.4635 2.86719 50.099 3.44531 49.8438C4.02344 49.5885 4.66927 49.4609 5.38281 49.4609C6.33073 49.4609 7.13021 49.6328 7.78125 49.9766C8.4375 50.3203 8.94531 50.7943 9.30469 51.3984C9.66927 52.0026 9.88802 52.6901 9.96094 53.4609H7.61719C7.59115 53.0026 7.5 52.6146 7.34375 52.2969C7.1875 51.974 6.95052 51.7318 6.63281 51.5703C6.32031 51.4036 5.90365 51.3203 5.38281 51.3203C4.99219 51.3203 4.65104 51.3932 4.35938 51.5391C4.06771 51.6849 3.82292 51.9062 3.625 52.2031C3.42708 52.5 3.27865 52.875 3.17969 53.3281C3.08594 53.776 3.03906 54.3021 3.03906 54.9062V55.7109C3.03906 56.2995 3.08333 56.8177 3.17188 57.2656C3.26042 57.7083 3.39583 58.0833 3.57812 58.3906C3.76562 58.6927 4.00521 58.9219 4.29688 59.0781C4.59375 59.2292 4.95052 59.3047 5.36719 59.3047C5.85677 59.3047 6.26042 59.2266 6.57812 59.0703C6.89583 58.9141 7.13802 58.6823 7.30469 58.375C7.47656 58.0677 7.57812 57.6849 7.60938 57.2266ZM17.7656 49.625H20.1016V57.1406C20.1016 58.0156 19.9141 58.7526 19.5391 59.3516C19.1693 59.9505 18.6562 60.401 18 60.7031C17.349 61.0052 16.599 61.1562 15.75 61.1562C14.901 61.1562 14.1458 61.0052 13.4844 60.7031C12.8281 60.401 12.3125 59.9505 11.9375 59.3516C11.5677 58.7526 11.3828 58.0156 11.3828 57.1406V49.625H13.7266V57.1406C13.7266 57.651 13.8073 58.0677 13.9688 58.3906C14.1302 58.7135 14.362 58.9505 14.6641 59.1016C14.9714 59.2526 15.3333 59.3281 15.75 59.3281C16.1771 59.3281 16.5391 59.2526 16.8359 59.1016C17.138 58.9505 17.3672 58.7135 17.5234 58.3906C17.6849 58.0677 17.7656 57.651 17.7656 57.1406V49.625ZM26.4844 56.0078H23.5625L23.5469 54.3984H26C26.4323 54.3984 26.7865 54.3438 27.0625 54.2344C27.3385 54.1198 27.5443 53.9557 27.6797 53.7422C27.8203 53.5234 27.8906 53.2578 27.8906 52.9453C27.8906 52.5911 27.8229 52.3047 27.6875 52.0859C27.5573 51.8672 27.3516 51.7083 27.0703 51.6094C26.7943 51.5104 26.4375 51.4609 26 51.4609H24.375V61H22.0312V49.625H26C26.6615 49.625 27.2526 49.6875 27.7734 49.8125C28.2995 49.9375 28.7448 50.1276 29.1094 50.3828C29.474 50.638 29.7526 50.9609 29.9453 51.3516C30.138 51.737 30.2344 52.1953 30.2344 52.7266C30.2344 53.1953 30.1276 53.6276 29.9141 54.0234C29.7057 54.4193 29.375 54.7422 28.9219 54.9922C28.474 55.2422 27.888 55.3802 27.1641 55.4062L26.4844 56.0078ZM26.3828 61H22.9219L23.8359 59.1719H26.3828C26.7943 59.1719 27.1302 59.1068 27.3906 58.9766C27.651 58.8411 27.8438 58.6589 27.9688 58.4297C28.0938 58.2005 28.1562 57.9375 28.1562 57.6406C28.1562 57.3073 28.099 57.0182 27.9844 56.7734C27.875 56.5286 27.6979 56.3411 27.4531 56.2109C27.2083 56.0755 26.8854 56.0078 26.4844 56.0078H24.2266L24.2422 54.3984H27.0547L27.5938 55.0312C28.2865 55.0208 28.8438 55.1432 29.2656 55.3984C29.6927 55.6484 30.0026 55.974 30.1953 56.375C30.3932 56.776 30.4922 57.2057 30.4922 57.6641C30.4922 58.3932 30.3333 59.0078 30.0156 59.5078C29.6979 60.0026 29.2318 60.375 28.6172 60.625C28.0078 60.875 27.263 61 26.3828 61ZM41.5938 55.0469V55.5859C41.5938 56.4505 41.4766 57.2266 41.2422 57.9141C41.0078 58.6016 40.6771 59.1875 40.25 59.6719C39.8229 60.151 39.3125 60.5182 38.7188 60.7734C38.1302 61.0286 37.4766 61.1562 36.7578 61.1562C36.0443 61.1562 35.3906 61.0286 34.7969 60.7734C34.2083 60.5182 33.6979 60.151 33.2656 59.6719C32.8333 59.1875 32.4974 58.6016 32.2578 57.9141C32.0234 57.2266 31.9062 56.4505 31.9062 55.5859V55.0469C31.9062 54.1771 32.0234 53.401 32.2578 52.7188C32.4922 52.0312 32.8229 51.4453 33.25 50.9609C33.6823 50.4766 34.1927 50.1068 34.7812 49.8516C35.375 49.5964 36.0286 49.4688 36.7422 49.4688C37.4609 49.4688 38.1146 49.5964 38.7031 49.8516C39.2969 50.1068 39.8073 50.4766 40.2344 50.9609C40.6667 51.4453 41 52.0312 41.2344 52.7188C41.474 53.401 41.5938 54.1771 41.5938 55.0469ZM39.2266 55.5859V55.0312C39.2266 54.4271 39.1719 53.8958 39.0625 53.4375C38.9531 52.9792 38.7917 52.5938 38.5781 52.2812C38.3646 51.9688 38.1042 51.7344 37.7969 51.5781C37.4896 51.4167 37.138 51.3359 36.7422 51.3359C36.3464 51.3359 35.9948 51.4167 35.6875 51.5781C35.3854 51.7344 35.1276 51.9688 34.9141 52.2812C34.7057 52.5938 34.5469 52.9792 34.4375 53.4375C34.3281 53.8958 34.2734 54.4271 34.2734 55.0312V55.5859C34.2734 56.1849 34.3281 56.7161 34.4375 57.1797C34.5469 57.638 34.7083 58.026 34.9219 58.3438C35.1354 58.6562 35.3958 58.8932 35.7031 59.0547C36.0104 59.2161 36.362 59.2969 36.7578 59.2969C37.1536 59.2969 37.5052 59.2161 37.8125 59.0547C38.1198 58.8932 38.3776 58.6562 38.5859 58.3438C38.7943 58.026 38.9531 57.638 39.0625 57.1797C39.1719 56.7161 39.2266 56.1849 39.2266 55.5859ZM49.2031 58.0234C49.2031 57.8203 49.1719 57.638 49.1094 57.4766C49.0521 57.3099 48.9427 57.1589 48.7812 57.0234C48.6198 56.8828 48.3932 56.7448 48.1016 56.6094C47.8099 56.474 47.4323 56.3333 46.9688 56.1875C46.4531 56.0208 45.9635 55.8333 45.5 55.625C45.0417 55.4167 44.6354 55.1745 44.2812 54.8984C43.9323 54.6172 43.6562 54.2917 43.4531 53.9219C43.2552 53.5521 43.1562 53.1224 43.1562 52.6328C43.1562 52.1589 43.2604 51.7292 43.4688 51.3438C43.6771 50.9531 43.9688 50.6198 44.3438 50.3438C44.7188 50.0625 45.1615 49.8464 45.6719 49.6953C46.1875 49.5443 46.7526 49.4688 47.3672 49.4688C48.2057 49.4688 48.9375 49.6198 49.5625 49.9219C50.1875 50.224 50.6719 50.638 51.0156 51.1641C51.3646 51.6901 51.5391 52.2917 51.5391 52.9688H49.2109C49.2109 52.6354 49.1406 52.3438 49 52.0938C48.8646 51.8385 48.6562 51.638 48.375 51.4922C48.099 51.3464 47.75 51.2734 47.3281 51.2734C46.9219 51.2734 46.5833 51.3359 46.3125 51.4609C46.0417 51.5807 45.8385 51.7448 45.7031 51.9531C45.5677 52.1562 45.5 52.3854 45.5 52.6406C45.5 52.8333 45.5469 53.0078 45.6406 53.1641C45.7396 53.3203 45.8854 53.4661 46.0781 53.6016C46.2708 53.737 46.5078 53.8646 46.7891 53.9844C47.0703 54.1042 47.3958 54.2214 47.7656 54.3359C48.3854 54.5234 48.9297 54.7344 49.3984 54.9688C49.8724 55.2031 50.2682 55.4661 50.5859 55.7578C50.9036 56.0495 51.1432 56.3802 51.3047 56.75C51.4661 57.1198 51.5469 57.5391 51.5469 58.0078C51.5469 58.5026 51.4505 58.9453 51.2578 59.3359C51.0651 59.7266 50.7865 60.0573 50.4219 60.3281C50.0573 60.599 49.6224 60.8047 49.1172 60.9453C48.612 61.0859 48.0469 61.1562 47.4219 61.1562C46.8594 61.1562 46.3047 61.0833 45.7578 60.9375C45.2109 60.7865 44.7135 60.5599 44.2656 60.2578C43.8229 59.9557 43.4688 59.5703 43.2031 59.1016C42.9375 58.6328 42.8047 58.0781 42.8047 57.4375H45.1562C45.1562 57.7917 45.2109 58.0911 45.3203 58.3359C45.4297 58.5807 45.5833 58.7786 45.7812 58.9297C45.9844 59.0807 46.224 59.1901 46.5 59.2578C46.7812 59.3255 47.0885 59.3594 47.4219 59.3594C47.8281 59.3594 48.1615 59.3021 48.4219 59.1875C48.6875 59.0729 48.8828 58.9141 49.0078 58.7109C49.138 58.5078 49.2031 58.2786 49.2031 58.0234ZM61.5547 56.9453H58.6562V55.1172H61.5547C62.0026 55.1172 62.3672 55.0443 62.6484 54.8984C62.9297 54.7474 63.1354 54.5391 63.2656 54.2734C63.3958 54.0078 63.4609 53.7083 63.4609 53.375C63.4609 53.0365 63.3958 52.7214 63.2656 52.4297C63.1354 52.138 62.9297 51.9036 62.6484 51.7266C62.3672 51.5495 62.0026 51.4609 61.5547 51.4609H59.4688V61H57.125V49.625H61.5547C62.4453 49.625 63.2083 49.7865 63.8438 50.1094C64.4844 50.4271 64.974 50.8672 65.3125 51.4297C65.651 51.9922 65.8203 52.6354 65.8203 53.3594C65.8203 54.0938 65.651 54.7292 65.3125 55.2656C64.974 55.8021 64.4844 56.2161 63.8438 56.5078C63.2083 56.7995 62.4453 56.9453 61.5547 56.9453ZM73.7188 49.625H76.0547V57.1406C76.0547 58.0156 75.8672 58.7526 75.4922 59.3516C75.1224 59.9505 74.6094 60.401 73.9531 60.7031C73.3021 61.0052 72.5521 61.1562 71.7031 61.1562C70.8542 61.1562 70.099 61.0052 69.4375 60.7031C68.7812 60.401 68.2656 59.9505 67.8906 59.3516C67.5208 58.7526 67.3359 58.0156 67.3359 57.1406V49.625H69.6797V57.1406C69.6797 57.651 69.7604 58.0677 69.9219 58.3906C70.0833 58.7135 70.3151 58.9505 70.6172 59.1016C70.9245 59.2526 71.2865 59.3281 71.7031 59.3281C72.1302 59.3281 72.4922 59.2526 72.7891 59.1016C73.0911 58.9505 73.3203 58.7135 73.4766 58.3906C73.638 58.0677 73.7188 57.651 73.7188 57.1406V49.625ZM86.2109 59.1719V61H78.1484V59.1719H86.2109ZM86.0938 50.9297L79.1875 61H77.5391V59.6562L84.5 49.625H86.0938V50.9297ZM85.2891 49.625V51.4609H77.5469V49.625H85.2891ZM95.9297 59.1719V61H87.8672V59.1719H95.9297ZM95.8125 50.9297L88.9062 61H87.2578V59.6562L94.2188 49.625H95.8125V50.9297ZM95.0078 49.625V51.4609H87.2656V49.625H95.0078ZM104.734 59.1719V61H99.0078V59.1719H104.734ZM99.7656 49.625V61H97.4219V49.625H99.7656ZM113.711 59.1719V61H107.656V59.1719H113.711ZM108.422 49.625V61H106.078V49.625H108.422ZM112.922 54.2578V56.0391H107.656V54.2578H112.922ZM113.703 49.625V51.4609H107.656V49.625H113.703Z" fill="white"/>
</svg>
